<svg fill="#FF0000" xmlns="http://www.w3.org/2000/svg" xmlns:xlink="http://www.w3.org/1999/xlink" xml:space="preserve" version="1.1" style="shape-rendering:geometricPrecision;text-rendering:geometricPrecision;image-rendering:optimizeQuality;" viewBox="0 0 200 200" x="0px" y="0px" fill-rule="evenodd" clip-rule="evenodd"><defs><style type="text/css">
   
    .fil0 {fill:#FF0000}
   
  </style></defs><g><path class="fil0" d="M30 0l140 0c16,0 30,13 30,30l0 140c0,16 -14,30 -30,30l-140 0c-17,0 -30,-14 -30,-30l0 -140c0,-17 13,-30 30,-30zm70 80c11,0 20,9 20,20 0,11 -9,20 -20,20 -11,0 -20,-9 -20,-20 0,-11 9,-20 20,-20z"></path></g></svg>