<svg fill="#FF8200" xmlns="http://www.w3.org/2000/svg" xmlns:xlink="http://www.w3.org/1999/xlink" version="1.1" x="0px" y="0px" viewBox="0 0 66 66" enable-background="new 0 0 66 66" xml:space="preserve"><g><path d="M30.6,8.1c-0.1,0.2-0.3,0.4-0.6,0.4c-0.4,0-0.7-0.3-0.7-0.7c0-0.3,0.2-0.6,0.5-0.7c-0.3-0.2-0.7-0.4-1.1-0.4   c-1.1,0-2,0.9-2,2c0,1.1,0.9,2,2,2c1.1,0,2-0.9,2-2C30.8,8.6,30.7,8.3,30.6,8.1z M28.5,9.9c-0.3,0-0.5-0.2-0.5-0.5   c0-0.3,0.2-0.5,0.5-0.5c0.3,0,0.5,0.2,0.5,0.5C28.9,9.6,28.7,9.9,28.5,9.9z"></path><path d="M46.4,8.1c-0.1,0.2-0.3,0.4-0.6,0.4c-0.4,0-0.7-0.3-0.7-0.7c0-0.3,0.2-0.6,0.5-0.7c-0.3-0.2-0.7-0.4-1.1-0.4   c-1.1,0-2,0.9-2,2c0,1.1,0.9,2,2,2s2-0.9,2-2C46.5,8.6,46.5,8.3,46.4,8.1z M44.2,9.9c-0.3,0-0.5-0.2-0.5-0.5c0-0.3,0.2-0.5,0.5-0.5   c0.3,0,0.5,0.2,0.5,0.5C44.7,9.6,44.5,9.9,44.2,9.9z"></path><g><path d="M46.8,17.6c-0.3,0.1-0.6,0.2-0.9,0.2c0.1,0.5,0.3,1.3,0.1,1.6c-0.5,0.7-1.7,1-2.4,0.5c-0.3-0.2-0.3-1-0.3-1.5    c-0.2,0-0.5,0.1-0.7,0.1c0.1,0.5,0.3,1.3,0.1,1.5c-0.5,0.6-1.7,0.8-2.3,0.3c-0.2-0.2-0.2-1-0.2-1.5c-0.2,0-0.5,0.1-0.7,0.1    c0.1,0.5,0.2,1.3,0,1.5c-0.5,0.6-1.7,0.6-2.3,0.1c-0.2-0.2-0.2-1-0.1-1.5c-0.2,0-0.5,0-0.8,0c0.1,0.5,0.2,1.3,0,1.5    c-0.6,0.6-1.9,0.5-2.4-0.1c-0.2-0.2-0.1-1,0-1.5c-0.3,0-0.5-0.1-0.8-0.1c0,0.5,0.1,1.3-0.2,1.5c-0.6,0.5-1.8,0.3-2.2-0.3    c-0.2-0.3,0-1,0.1-1.5c-0.2,0-0.5-0.1-0.7-0.1c0,0.5,0,1.3-0.3,1.5c-0.6,0.5-1.8,0.1-2.3-0.5c-0.2-0.3,0-1,0.1-1.6    c-0.3-0.1-0.6-0.1-0.9-0.2c-0.2,0-0.3-0.1-0.4-0.1c-0.2,0-0.3,0-0.4,0.2c-0.4,0.4-0.3,1.9,0.6,3.8c0.5,1.1,1.2,2.2,2.1,3.2    c-0.1-0.8-0.1-1.9,0.4-2c0.9-0.2,1.6,1.3,2,2.2c0.1,0.4,0,1.3-0.1,1.9c0.2,0.2,0.5,0.3,0.7,0.5c0-0.6,0-1.5,0.3-1.7    c1-0.4,2.2,0.6,2.8,1.5c0.2,0.3,0.1,1.1,0,1.6c0.3,0.1,0.5,0.1,0.8,0.2c0-0.5-0.1-1.3,0.2-1.5c0.6-0.6,2.8-0.7,3.5-0.2    c0.2,0.2,0.2,1,0.2,1.5c0.3-0.1,0.5-0.1,0.8-0.2c-0.1-0.5-0.2-1.3,0-1.6c0.5-0.8,1.5-1.8,2.3-1.4c0.3,0.1,0.3,1.1,0.3,1.7    c0.2-0.2,0.5-0.3,0.7-0.5c-0.1-0.6-0.3-1.5-0.1-1.9c0.3-0.9,0.8-2.4,2-2.4c0.5,0,0.5,1.2,0.4,2c0.7-0.9,1.4-1.9,1.8-2.9    c0.9-1.9,0.9-3.3,0.6-3.7C47.4,17.5,47.2,17.5,46.8,17.6z"></path><path d="M58,48.5c-1.5-4.4-4.9-7.9-10.3-9.9c5.4-6.8,6.4-16.4,4-24.8h0c-0.4-1.3-0.9-2.5-1.4-3.6c0.3-0.4,0.5-0.9,0.6-1.4    c0.9-3.3-1-6.7-4.3-7.6c-3.3-0.9-6.7,1.1-7.6,4.3c0,0.2-0.1,0.3-0.1,0.5c-0.7,0.5-1.4,1.1-1.9,2c-0.2,0.3-0.4,0.4-0.6,0.1    c-0.5-0.8-1.2-1.3-1.9-1.8c0-0.2-0.1-0.5-0.1-0.7c-0.9-3.3-4.3-5.2-7.6-4.3c-3.3,0.9-5.2,4.3-4.3,7.6c0.1,0.5,0.3,1,0.6,1.4    c-3.7,7.5-3.5,17.2,0.1,24.5c0,0,0,0,0,0c8.7,17.6,24.2,4.2,28.9,16.1c1,2.7,0.1,5.1-2.2,6.7c-5.6,3.7-18.6,2.5-23.9,0.9    c-10-3-15.6-10.7-16-16.5c-0.2-3.1,1.2-5.5,3.3-6.4c2.3-1.1,5-0.2,6,2.6c1.2,3-0.8,4.2-1.8,3.8c0.4-0.2,0.7-0.6,0.7-1.1    c-0.1-0.6-0.6-1-1.2-1c-1,0.1-1.3,1.4-0.7,2.2c1.4,2.4,6,0.7,4.5-4.5c-1.1-3.8-4.9-5.3-8.3-3.9c-3,1.2-5.1,4.3-5,8.5    c0.1,6.9,6.2,16.3,17.4,20.3c6.8,2.5,21.2,4.4,28.4-0.1C58.2,59.2,59.8,53.7,58,48.5z M44.5,2.5c2.8,0,5.1,2.3,5.1,5.1    c0,2.8-2.3,5.1-5.1,5.1s-5.1-2.3-5.1-5.1C39.4,4.8,41.7,2.5,44.5,2.5z M28.8,2.5c2.8,0,5.1,2.3,5.1,5.1c0,2.8-2.3,5.1-5.1,5.1    s-5.1-2.3-5.1-5.1C23.7,4.8,26,2.5,28.8,2.5z M36.7,30c-5.2,0-9.4-4.1-11.3-8.2c-1-2.2-1.2-4-0.4-4.9c0.3-0.3,0.8-0.7,1.8-0.4    c6.8,1.9,13.5,1.9,19.7,0.1c1-0.3,1.6,0,1.9,0.4c0.7,0.8,0.6,2.6-0.4,4.8C46.1,25.9,41.9,30,36.7,30z"></path></g></g></svg>