<svg fill="#0059B3" xmlns="http://www.w3.org/2000/svg" xmlns:xlink="http://www.w3.org/1999/xlink" version="1.1" x="0px" y="0px" viewBox="0 0 66 66" enable-background="new 0 0 66 66" xml:space="preserve"><g><path d="M38.7,12.2c-0.2,0-0.5,0.1-0.7,0.2c0.2,0.1,0.3,0.3,0.3,0.5c0,0.4-0.3,0.6-0.6,0.6c-0.1,0-0.3-0.1-0.4-0.1   c0,0.1-0.1,0.2-0.1,0.3c0,0.8,0.7,1.5,1.5,1.5c0.8,0,1.5-0.7,1.5-1.5S39.6,12.2,38.7,12.2z M39.2,14.4c-0.2,0-0.3-0.2-0.3-0.3   c0-0.2,0.2-0.3,0.3-0.3c0.2,0,0.3,0.2,0.3,0.3C39.5,14.3,39.3,14.4,39.2,14.4z"></path><path d="M29.3,13.6c0-0.1-0.1-0.3-0.1-0.4c-0.1,0.1-0.3,0.2-0.5,0.2c-0.5,0-0.9-0.4-0.9-0.9c0-0.3,0.1-0.5,0.3-0.7   c-0.3-0.1-0.6-0.2-0.9-0.2c-1.1,0-2,0.9-2,2c0,1.1,0.9,2,2,2C28.4,15.6,29.3,14.7,29.3,13.6z M26.8,14.5c-0.3,0-0.5-0.2-0.5-0.5   s0.2-0.5,0.5-0.5c0.3,0,0.5,0.2,0.5,0.5S27,14.5,26.8,14.5z"></path><path d="M39.3,20.2c-1.3,0.3-2.6,0.5-3.9,0.6c0.1,0.4,0.3,0.9,0.1,1.1c-1,1.3-4.1,1.2-5.2,0c-0.2-0.2-0.1-0.7,0-1.1   c-1.3-0.1-2.5-0.3-3.8-0.6c-0.1,0-0.2,0-0.2,0c-0.2,0-0.2,0.1-0.3,0.1c-0.3,0.3-0.2,1.4,0.5,2.8c0.4,0.8,1,1.7,1.8,2.5   c0.2-0.3,0.5-0.5,0.8-0.5c0.6-0.1,2,0.4,1.3,1.5c-0.1,0.1-0.1,0.2-0.2,0.3c0.8,0.4,1.6,0.6,2.6,0.6c0.9,0,1.8-0.2,2.5-0.6   c-0.1-0.1-0.2-0.2-0.2-0.4c-0.7-1.1,0.7-1.6,1.3-1.5c0.3,0,0.6,0.3,0.8,0.5c0.8-0.8,1.4-1.7,1.8-2.5c0.7-1.4,0.8-2.5,0.5-2.8   C39.7,20.3,39.7,20.2,39.3,20.2z"></path><path d="M60.5,50.5C59.2,40.1,53.8,31.1,46,25c-0.2-0.3-0.3-0.5-0.5-0.7c2.2,1.7,5.6,1.9,8.1-0.3c-0.8,0.3-1.8,0.1-2.4-0.5   c2.4-0.4,1.9-0.4,0.4-0.9c3.5-1.1,0.7-0.9-0.1-0.6c1.9-2.2-0.6-0.5-1.3,0.4c2.1-4.4-0.7-0.9-1-0.5c1-2.3,1.9-3.9,4.3-5.1   c2.9-1.6,4.9-0.9,6.7-0.7c-3.6-3.8-10-1.9-14.3,2.3c-0.1-2.4-0.8-4.7-2-6.6c-0.4-1.3-1.4-2.4-2.5-2.9c-1.9-1.6-4.3-2.7-6.9-3   c0.3-0.6,1-1.1,2.3-1.3c4.8-0.7,2.5-5.6-2.9,0.8c0-0.6,0.2-1.2,0.6-1.7c0.4-0.5,0.8-0.9,1.3-1.3c2.4-2.2-2.9-1.7-2.4,2.8   c-0.4-0.6-0.6-1.4-0.6-2.1c0-0.8-0.6-0.8-0.8-0.1c-0.3,1.4,0.1,2.3,0.6,2.9c-2,0.1-4,0.6-5.7,1.5c-3.4-0.2-6.3,2.8-5.8,6.5   c-0.6,1.4-0.9,2.9-1,4.5C15.8,14.1,9.4,12.1,5.8,16c1.7-0.2,3.8-0.9,6.7,0.7c2.4,1.2,3.3,2.9,4.3,5.1c-0.2-0.4-3.1-3.8-0.9,0.5   c-0.7-0.9-3.2-2.6-1.3-0.4c-0.8-0.3-3.6-0.5-0.1,0.6c-1.5,0.5-2,0.5,0.4,0.9c-0.6,0.6-1.6,0.8-2.4,0.5c2.2,2,5.2,2,7.4,0.8   c-0.2,0.3-0.4,0.6-0.6,0.9C11.8,31.7,6.8,40.5,5.5,50.5c-0.2,1.1,0.3,2,1,2.5c-0.6,5.1,1,3.8,1.5,1.9c-0.3,3.5,2.3,3.2,1.5-0.3   c2.4,5.8,1.8-1.1,2-1.5c1.5,3.4,2.1,0.7,1.2-1.3c2.1-3.1,0.3-7.2,3.9-16c0,0.3-0.1,0.6-0.1,1c-0.3,4.2,0.9,8.1,3.2,11.3   c4.4,14.9-2.1,17,6.6,17c2.3,0,2.4-0.6,1.7-2.3c-1.1-2.7-0.1-5.9,0.5-8.5c2.1,0.6,5,1,9.2,0.3c0.6,2.6,1.5,5.5,0.4,8.2   c-0.8,2.1-0.6,2.8,4.6,2.2c3.9-0.5,0.7-3.5,3-13.8c2.6-2.2,4.1-5.3,4.1-9.5c0-1.8-0.1-3.9-0.3-5.9c3.8,9,1.8,13,4,16.2   c-0.9,2-0.3,4.7,1.2,1.3c0.2,0.3-0.4,7.2,2,1.5c-0.8,3.6,1.8,3.8,1.5,0.3c0.6,1.9,2.1,3.2,1.5-1.9C60.3,52.4,60.7,51.5,60.5,50.5z    M22.1,13c0-2.7,2.2-4.9,4.9-4.9c2.7,0,4.9,2.2,4.9,4.9c0,2.7-2.2,4.9-4.9,4.9C24.2,17.8,22.1,15.6,22.1,13z M40.2,23.6   c-1.1,2.3-3.7,5.1-7.2,5.1s-6.1-2.7-7.2-5.1c-0.6-1.3-1.1-3-0.4-3.9c0.2-0.2,0.6-0.6,1.5-0.4c4,0.9,8.2,0.9,12.2,0   c0.8-0.2,1.3,0.2,1.5,0.4C41.3,20.6,40.8,22.3,40.2,23.6z M39.1,17.3c-2.3,0-4.1-1.9-4.1-4.1c0-2.3,1.8-4.1,4.1-4.1   c2.3,0,4.1,1.8,4.1,4.1C43.2,15.4,41.4,17.3,39.1,17.3z"></path></g></svg>