<svg fill="#F5D327" xmlns="http://www.w3.org/2000/svg" xmlns:xlink="http://www.w3.org/1999/xlink" version="1.1" x="0px" y="0px" viewBox="0 0 66 66" enable-background="new 0 0 66 66" xml:space="preserve"><g><path d="M25.9,19.6c1.1,0,2-0.9,2-2c0-0.2,0-0.4-0.1-0.6c-0.2,0.2-0.4,0.4-0.7,0.4c-0.5,0-0.9-0.4-0.9-0.9c0-0.3,0.2-0.6,0.4-0.7   c-0.2-0.1-0.5-0.1-0.7-0.1c-1.1,0-2,0.9-2,2C23.9,18.7,24.8,19.6,25.9,19.6z M25.3,17.5c0.3,0,0.5,0.2,0.5,0.5   c0,0.3-0.2,0.5-0.5,0.5c-0.3,0-0.5-0.2-0.5-0.5C24.8,17.7,25,17.5,25.3,17.5z"></path><path d="M41.3,17.4c-0.5,0-0.9-0.4-0.9-0.9c0-0.3,0.2-0.6,0.4-0.7c-0.2-0.1-0.5-0.1-0.7-0.1c-1.1,0-2,0.9-2,2c0,1.1,0.9,2,2,2   c1.1,0,2-0.9,2-2c0-0.2,0-0.4-0.1-0.6C41.8,17.2,41.6,17.4,41.3,17.4z M39.5,18.5c-0.3,0-0.5-0.2-0.5-0.5c0-0.3,0.2-0.5,0.5-0.5   c0.3,0,0.5,0.2,0.5,0.5C40,18.3,39.8,18.5,39.5,18.5z"></path><path d="M64.3,44.7c-0.6-4.3-2.1-8.4-4.3-12.1c0.8,0.6,1.6,1.1,2.4,1.6c-1.9-4.3-5.3-7.9-9.4-10.3c16.4-1.6,13.2-11.4,6.8-12   c-4-0.4-7,2.9-8.7,6.5c0-1.3,0.1-2.5,0.4-3.6c-1.1,0.7-1.9,1.6-2.3,3c-0.2-1.7,0.1-3.5,0.8-5c-0.7,0.3-1.5,0.5-2.2,0.8   c0.5-1.2,0.9-2.3,1.4-3.5c-0.8,0.5-1.7,0.9-2.5,1.4c0.5-0.8,1-1.6,1.5-2.4c-2,0.3-4,0.7-5.9,1c0.9-0.6,1.8-1.3,2.7-1.9   c-2.4,0.2-4.8,0.8-6.9,2c0.6-1,1.1-2.1,1.7-3.1c-1.1,0.4-2.2,0.9-3.2,1.5c1.1-1.7,2.2-3.1,2.8-3.6c-2.1,0.5-4,2-5,3.9   c-0.2-1.7-1.1-3.3-2.4-4.4c0.8,1.3,1.3,2.7,1.5,4.2c-1.7-1.3-3.1-3-4.2-5c0.7,2,1.5,4.1,2,6.2c-1.5-1.3-3.3-2.3-5.1-2.9   c0.6,1,1.1,2.1,1.7,3.1c-2.2-1.1-4.5-1.8-6.9-2c0.9,0.6,1.8,1.3,2.6,1.9c-2-0.3-4-0.7-5.9-1c0.5,0.8,1,1.6,1.5,2.4   c-0.8-0.5-1.7-1-2.5-1.4c0.5,1.1,1,2.3,1.4,3.5c-0.7-0.3-1.5-0.6-2.2-0.8c0.8,1.5,1.1,3.3,0.9,5c-0.3-1.3-1.2-2.2-2.2-3   c0.3,1.2,0.4,2.4,0.4,3.6c-1.8-3.6-4.7-6.9-8.7-6.5c-6.4,0.6-9.6,10.4,6.8,12c-4.1,2.3-7.5,5.9-9.4,10.3c0.8-0.6,1.6-1.1,2.4-1.6   c-2.2,3.7-3.7,7.8-4.3,12.1C2,44,2.4,43.4,2.8,42.8C3,49,1.2,55.7,4.2,57.8c-0.4,0.7-0.3,1.8,0.2,2.6c0.7-0.7,1.1-1.4,1.2-2   c0.5,0.1,1.2,0.2,1.9,0.1c0.1,0,0.1,0,0.1,0c0,0.8,0.6,1.7,1.4,2.1c0.3-0.9,0.3-1.8,0.1-2.3c0.6-0.2,1.1-0.4,1.5-0.7   c0.5,0.6,1.4,0.9,2.2,0.9c-0.3-1.1-0.8-1.8-1.3-2.1c1.4-3.4-2.3-9.5-3-12.7c0.4,0.7,0.8,1.4,1.2,2.1c-0.1-1.9,0.1-3.8,0.7-5.6   c0.1,0.7,0.2,1.4,0.2,2.1c0-1.8,0.3-3.7,0.8-5.4c0,0.1,0,0.2-0.1,0.3c0.4-0.4,0.9-0.8,1.5-1c-0.6,1.5-0.9,3.1-0.9,4.7   c0,4,2.1,8.5,7,11.5c0,2.6-0.4,5.5-1.8,6.4c-0.1,0.1-6.3,2.9-0.1,3.6c2.4,0.2,4.9,0.2,7.3-0.1c3.3-0.4,3.8-1.5,3.4-3.3   c-0.3-1.3-0.7-2.5-1-3.7c1.9,0.3,3.9,0.6,6.2,0.6c2.3,0,4.3-0.2,6.2-0.5c-0.4,1.2-0.8,2.5-1,3.7c-0.4,1.8,0.1,2.9,3.4,3.3   c2.4,0.3,4.9,0.3,7.3,0.1c6.2-0.6,0-3.5-0.1-3.6c-1.4-0.9-1.8-3.7-1.8-6.2c6.9-4,8.1-11,6.1-16.4c0.6,0.2,1.1,0.5,1.5,1   c0-0.1,0-0.2-0.1-0.3c0.6,1.8,0.8,3.6,0.8,5.5c0.1-0.7,0.2-1.4,0.2-2.1c0.6,1.8,0.8,3.7,0.7,5.6c0.4-0.7,0.8-1.4,1.2-2.1   c-0.7,3.2-4.3,9.4-3,12.7c-0.5,0.4-1,1.1-1.3,2.1c0.8,0.1,1.7-0.3,2.2-0.9c0.4,0.3,0.9,0.6,1.5,0.7c-0.2,0.6-0.2,1.4,0.1,2.3   c0.8-0.4,1.4-1.3,1.4-2.1c0,0,0.1,0,0.1,0c0.7,0.1,1.4,0,1.9-0.1c0.1,0.6,0.5,1.3,1.2,2c0.5-0.7,0.7-1.9,0.2-2.6   c3-2.2,1.3-8.9,1.4-15C63.6,43.4,64,44,64.3,44.7z M54.3,21.1c1.1-4.4,5.7-7.1,8.6-5.2c0.1,0.1,0.2,0.2,0.3,0.3   c0.1,0.1,0.2,0.3,0.3,0.4c0.2,0.5,0,1.1-0.5,1.7C61.2,20.8,57.9,22.5,54.3,21.1C54.3,21.1,54.3,21.1,54.3,21.1z M2.9,18.3   c-0.5-0.6-0.7-1.2-0.5-1.7c0.1-0.1,0.2-0.3,0.3-0.4c0.1-0.1,0.2-0.2,0.3-0.3c2.9-1.9,7.6,0.8,8.6,5.2c0,0,0,0,0,0   C8.1,22.5,4.8,20.8,2.9,18.3z M12.2,34.8c0.1-0.1,0.1-0.3,0.2-0.4c0,0,0,0,0.1,0C12.4,34.5,12.3,34.6,12.2,34.8z M25.1,11   c3.7-0.4,6.7,2.1,6.7,5.6c0,3.5-3,6.7-6.7,7.1c-3.7,0.4-6.7-2.1-6.7-5.6S21.4,11.4,25.1,11z M18.3,42.7c0.6-2.1,1.8-4.1,3.3-5.8v0   c-0.4-0.5-1.4-1.9-1.4-2.5c0.1-1.5,1.9-3.8,3.7-3.1c0.7,0.3,1,2.3,1.1,3c0.6-0.3,1.3-0.6,1.9-0.9c-0.2-0.7-0.8-2.7-0.5-3.4   c0.9-1.6,3.9-2.4,5.2-1.2c0.6,0.5,0.4,2.8,0.3,3.5c1.8-0.1,4.6,0.4,6.9,1.4c0.4-6.6,5.5-1.5,4.6,0.5c-0.2,0.5-0.4,0.9-1,1.8   c2,1.8,3.5,4.1,4.2,6.6C40,31.6,25.1,31.6,18.3,42.7z M40.9,23.7c-3.7-0.4-6.7-3.6-6.7-7.1c0-3.5,3-6,6.7-5.6   c3.7,0.4,6.7,3.6,6.7,7.1S44.6,24.1,40.9,23.7z M53.5,34.4C53.6,34.4,53.6,34.4,53.5,34.4c0.1,0.1,0.2,0.3,0.2,0.4   C53.7,34.6,53.6,34.5,53.5,34.4z"></path></g></svg>