<svg fill="#8115C8" xmlns="http://www.w3.org/2000/svg" xmlns:xlink="http://www.w3.org/1999/xlink" version="1.1" x="0px" y="0px" viewBox="0 0 66 66" enable-background="new 0 0 66 66" xml:space="preserve"><g><path d="M26.7,26.1c1,0,1.8-0.8,1.8-1.7c0-0.3-0.1-0.6-0.3-0.9C28,23.8,27.8,24,27.5,24c-0.4,0-0.7-0.3-0.7-0.7   c0-0.2,0.1-0.4,0.3-0.6c-0.1,0-0.2-0.1-0.4-0.1c-1,0-1.7,0.8-1.7,1.8C24.9,25.3,25.7,26.1,26.7,26.1z M26.2,24.8   c0.2,0,0.4,0.2,0.4,0.4c0,0.2-0.2,0.4-0.4,0.4c-0.2,0-0.4-0.2-0.4-0.4C25.9,24.9,26,24.8,26.2,24.8z"></path><path d="M39.3,26.1c1,0,1.8-0.8,1.8-1.7c0-0.3-0.1-0.6-0.3-0.9c-0.1,0.3-0.4,0.5-0.7,0.5c-0.4,0-0.7-0.3-0.7-0.7   c0-0.2,0.1-0.4,0.3-0.6c-0.1,0-0.2-0.1-0.4-0.1c-1,0-1.8,0.8-1.8,1.8C37.6,25.3,38.4,26.1,39.3,26.1z M38.9,24.8   c0.2,0,0.4,0.2,0.4,0.4c0,0.2-0.2,0.4-0.4,0.4c-0.2,0-0.4-0.2-0.4-0.4C38.6,24.9,38.7,24.8,38.9,24.8z"></path><path d="M54.8,7.8c0-2.2-1.2,1.3-1.8,3.4c-0.4-7.8,0-7.7-0.9,0.2c-1.1-7.7-1.7,3.5-1.7,3.5s0.3-9.6-1.5-2.6   c0.6-19.5-2.4,3.9-2.4,3.9h0C45.5,12,45.3,6.6,45,6.6c-0.5-0.5-0.4,3.5-1.1,5.1c-0.5-6-0.6-8.3-0.7-8.3c-0.1,0-1.6,12.9-1.6,12.9   c0-3.3,0-16-2.4-2.2c0.6-16.3-1.4-5.3-2.4-0.5c-0.5-2.8-0.1-3-1,1.1c0.1-18.3-1.3-7.2-2.2-1.3c-1.6-8.2-0.3-3.8-1.5,0.2   c-1.6-8.4-0.8-9-2.4,1.7c-1.6-12.5-1.6-3.7-1.5,0.3c-0.7-5.7-2.2-26.3-4.2-2.3c-1.8-21.5-2.4-0.4-3.2,2.5c0.1-4.2-0.2-16.9-2.3-1.9   c-0.8-21.5-0.8-8.1-2.4-0.7c-0.6-2.6-0.4-2.6-0.8,0.5c-1.8-11.9-1-10.8-2.3-6.6c-1.9-16.4-3.2,3.6-3.5,21.1   c-0.1,4.6-0.2,24.4,1.1,20c0.3,4.5,0.4,7.2,0.5,8.5c0.1,8.2,2,8.2,4.5,8.2c2.4,0,4.4,0,4.5-8c6.3-12.4,21.7-6.1,25-0.9   c0.7,1.1,0.9-1.4,1-2.6c0.8,0.4,0.6,2.6,0.6,2.9c0,8.6,2,8.6,4.5,8.6c2.5,0,4.5,0,4.5-8.6c0-0.4,0-0.7,0-1.1c0-0.1,0-0.1,0.1-0.2   c0.1,1,0.3,3,0.4,2.1C57.2,30.2,55,18.1,54.8,7.8z M39.3,19.8c2.4,0,4.4,2,4.4,4.4c0,2.4-2,4.4-4.4,4.4s-4.4-2-4.4-4.4   C34.9,21.7,36.9,19.8,39.3,19.8z M26.7,19.8c2.4,0,4.4,2,4.4,4.4c0,2.4-2,4.4-4.4,4.4s-4.4-2-4.4-4.4   C22.2,21.7,24.2,19.8,26.7,19.8z M44,35c0.3,0.4,0.5,0.9,0.7,1.2c0.1,0.3,0.1,0.6-0.1,0.8c-0.6,0.7-1.4,1.2-2.3,1.5   c-0.1,0-0.3,0-0.4,0h0l0,0c-0.1,0-0.2-0.1-0.3-0.2l0,0l-1.9-2c-0.2,0-0.4,0-0.6,0.1c0,0.7,0,1.8,0,2.4c0,0.1,0,0.2-0.1,0.3   c0,0,0,0,0,0c0,0.1-0.1,0.1-0.2,0.2c0,0,0,0,0,0c0,0,0,0,0,0c-0.1,0.1-0.2,0.1-0.3,0.2c-1.4,0.2-2.8,0-4.1-0.6c0,0-0.1,0-0.1-0.1   c0,0,0,0,0,0c0,0,0,0,0,0c0,0-0.1,0-0.1-0.1c0,0-0.1-0.1-0.1-0.1c0,0,0,0,0,0c-0.1-0.1-0.1-0.3,0-0.5c0.2-0.7,0.6-1.9,0.7-2.4   c-0.3-0.1-0.6-0.2-0.9-0.3c0,0-0.1,0-0.1,0l-1.4,2.4c0,0.1-0.1,0.1-0.2,0.2c0,0,0,0,0,0c-0.1,0.1-0.2,0.1-0.2,0.1l0,0l0,0   c-0.1,0-0.1,0-0.2,0c-0.9-0.1-1.8-0.4-2.6-0.9c-0.1,0-0.1-0.1-0.2-0.1C29,36.9,29,36.8,29,36.7c0,0,0,0,0-0.1c0-0.1,0-0.2,0-0.3   c0-0.1,0.1-0.3,0.1-0.4c0.1-0.5,0.3-1.1,0.5-1.6c0-0.1,0-0.1,0.1-0.2c-2.6-0.5-5-0.4-8.2,0.5c4.5-2.1,8.2-1.8,12.8-0.2   c2,0.7,4.1,1.6,6.1,1c2-0.5,3.4-2.5,4.7-4.1c-0.5,0.9-1,1.8-1.6,2.6C43.6,34.3,43.8,34.6,44,35z"></path></g></svg>