<svg fill="#FF00BB" xmlns="http://www.w3.org/2000/svg" xmlns:xlink="http://www.w3.org/1999/xlink" version="1.1" x="0px" y="0px" viewBox="0 0 66 66" enable-background="new 0 0 66 66" xml:space="preserve"><g><path d="M33.3,33.9c1.7,0,3.1-1.4,3.1-3.1c0-0.2,0-0.5-0.1-0.7c-0.2,0.1-0.4,0.1-0.6,0.1c-0.8,0-1.4-0.6-1.4-1.4   c0-0.3,0.1-0.6,0.3-0.8c-0.4-0.2-0.8-0.3-1.3-0.3c-1.7,0-3.1,1.4-3.1,3.1C30.3,32.5,31.6,33.9,33.3,33.9z M32.9,31   c0.4,0,0.7,0.3,0.7,0.7c0,0.4-0.3,0.7-0.7,0.7s-0.7-0.3-0.7-0.7C32.2,31.3,32.5,31,32.9,31z"></path><path d="M51.8,18.3c1.8-1.1,3.1-2.9,1.9-4.7c-1.3-2-4.5-0.9-4.2,1.6c0,0,0,0,0,0c0.4,1.9,2.1,2.4,3.3,1.8c-2.3,1.9-6.7,1.4-8.2,6.1   c-1.5-1.3-3.1-2.3-4.9-3c-2.6-2.9,2.8-5.1,3.4-5.6c6-4.5,2.9-9.3,0.1-8.8c-1.2,0.2-2.1,1.2-1.9,2.6c0,0,0,0,0,0   c0.3,2.8,4.5,2.6,4.5-0.2c0-0.2,0-0.4-0.1-0.6c0-0.1,0-0.1,0-0.1c0,0,0,0,0,0c0.3,0.6,0.4,1.3,0.3,2.1c-0.8,5.2-6.8,4-8.4,8.2   c-0.2,0.6-0.3,1.2-0.2,1.8c-1-0.3-2-0.5-3-0.5c0.6-1.6,0.1-3.2-1.4-4.3c-2.7-2.1-2.8-5.3-1.4-7.3c0.8-1.1,1.9-1.5,2.7-2.1   c1.1-0.7,1.4-2.1,0.7-3.2c-0.4-0.6-1.1-1-1.9-1c-1.3,0-2.5,1.1-2.3,2.6c0,0,0,0,0,0c0.1,1.1,1.1,2,2.2,2c0.1,0,0.2,0,0.2,0   c-0.7,0.3-1.4,0.7-2,1.4c-2,2.2-2.1,6,0.8,8.7c1.1,1,1.2,2.2,0.2,3.1c-1.8,0.1-3.6,0.4-5.4,1c-0.8-1.6-2.2-2.7-2.6-3.2   c-1.2-1.9,1.6-3.5,1.5-7c-0.2-4.8-5.9-5-5.5-1.3l0,0c0.1,1.1,1.1,2,2.2,2c1.7,0,2.9-1.8,2.1-3.3c1.8,2.6-0.5,5.8-1.3,7.2   c-1.5,3,1.1,3.8,2,6.3c-1.7,0.8-3.2,1.8-4.6,3.1c-3.8-4.5-1.5-7-3.1-9.2c-1-1.6-2.5-2.3-4.1-1.6c-1,0.3-1.7,1.3-1.6,2.5   c0,0,0,0,0,0c0.1,1.1,1.1,2,2.2,2c1.8,0,3-2,1.9-3.5c-0.2-0.3-0.5-0.6-0.9-0.8c0.7,0.3,1.3,0.9,1.7,1.9c1.1,2.3-1.4,4.5,2.5,10.3   c-2.2,2.8-3.7,6.4-3.6,11.1c0.3,4.5,1.5,8.7,3.4,12.3c-0.9,2-1.9,2.3-3.4,4c-2.4,3.2-1.6,7.6,0.9,9c2.7,1.6-1.8-3.3,1.3-7.3   c0.4-0.6,1.7-1.6,2.7-3.1c1.1,1.6,2.3,3,3.6,4.2c-0.3,0.4-0.8,0.8-1.5,1.4c-3.9,3.5-1.3,10.8,0,5.4c0.3-1.6,1-2.5,2-3.4   c0.7-0.7,1.2-1.3,1.6-1.9c1.7,1,3.5,1.7,5.4,1.8c-0.7,1.2-2.7,4.7,0.8,6.3c0.7,0.3,1,0.1,0.8-0.7c-1-3.8,0-2.1,1.1-4.9   c0.1-0.3,0.2-0.6,0.3-0.9c1.7-0.3,3.3-0.9,4.8-1.9c0.3,0.6,0.6,1.2,1.1,1.8c1.1,1.3,1.9,1.9,1.6,3.5c-0.5,4,1.7,1,1.8,0.8   c1.3-2.2,0.3-4-1.3-6c-0.5-0.6-0.8-1.2-1-1.8c1.2-1.1,2.4-2.5,3.3-4c1,1.6,2.4,2.8,2.9,3.4c3.1,4-1.4,9,1.3,7.3   c2.5-1.5,3.3-5.9,0.9-9c-1.5-1.9-2.6-2-3.5-4.4c1.7-3.5,2.9-7.6,3.2-12c0.1-4.7-1.4-8.4-3.7-11.2C45.8,20.6,49.9,19.5,51.8,18.3z    M33.1,23.8c3.9,0,7,3.2,7,7.2s-3.1,7.2-7,7.2s-7-3.3-7-7.2S29.2,23.8,33.1,23.8z M20.4,41.2c-0.4,0.2-0.5,1.5-0.6,1.9   c-0.1-0.7-0.1-1.7,0.4-2.2c0.6-0.4,1.3,0.6,1.6,1.4C21.5,42,20.8,40.9,20.4,41.2z M36.1,52.6c-5.3,1.7-11.6-0.8-15-9.3   c-0.1-0.2-0.1-0.3-0.1-0.3c0.6,0.7,4.8,8.8,12,8.8c5.8,0,9.1-4.6,12-8.8C44.7,43.2,42.4,50.7,36.1,52.6z M46,43.2   c-0.1-0.4-0.2-1.7-0.6-1.9c-0.4-0.3-1.2,0.8-1.5,1.1c0.3-0.8,1-1.8,1.6-1.4C46.1,41.4,46.1,42.5,46,43.2z"></path></g></svg>