<svg fill="#287902" xmlns="http://www.w3.org/2000/svg" xmlns:xlink="http://www.w3.org/1999/xlink" version="1.1" x="0px" y="0px" viewBox="0 0 66 66" enable-background="new 0 0 66 66" xml:space="preserve"><g><path d="M29.1,20.7c0.4,0,0.8-0.4,0.8-0.8c0-0.1,0-0.2-0.1-0.3c-0.1,0-0.1,0.1-0.2,0.1c-0.2,0-0.3-0.1-0.3-0.3c0-0.1,0-0.1,0.1-0.2   c-0.1,0-0.2-0.1-0.3-0.1c-0.4,0-0.8,0.4-0.8,0.8C28.4,20.3,28.7,20.7,29.1,20.7z M28.9,19.8c0.1,0,0.2,0.1,0.2,0.2   s-0.1,0.2-0.2,0.2c-0.1,0-0.2-0.1-0.2-0.2S28.8,19.8,28.9,19.8z"></path><path d="M36.9,20.7c0.4,0,0.8-0.4,0.8-0.8c0-0.1,0-0.2-0.1-0.3c-0.1,0-0.1,0.1-0.2,0.1c-0.2,0-0.3-0.1-0.3-0.3c0-0.1,0-0.1,0.1-0.2   c-0.1,0-0.2-0.1-0.3-0.1c-0.4,0-0.8,0.4-0.8,0.8C36.1,20.3,36.5,20.7,36.9,20.7z M36.7,19.8c0.1,0,0.2,0.1,0.2,0.2   s-0.1,0.2-0.2,0.2s-0.2-0.1-0.2-0.2S36.6,19.8,36.7,19.8z"></path><path d="M23.8,25.3c0.3,0,0.5-0.2,0.5-0.5c0-0.1,0-0.1,0-0.2c0,0-0.1,0.1-0.1,0.1c-0.1,0-0.2-0.1-0.2-0.2c0,0,0-0.1,0-0.1   c-0.1,0-0.1,0-0.2,0c-0.3,0-0.5,0.2-0.5,0.5C23.3,25.1,23.6,25.3,23.8,25.3z M23.7,24.8c0.1,0,0.1,0.1,0.1,0.1   c0,0.1-0.1,0.1-0.1,0.1c-0.1,0-0.1-0.1-0.1-0.1C23.6,24.8,23.6,24.8,23.7,24.8z"></path><path d="M28,29.1c0.3,0,0.5-0.2,0.5-0.5c0-0.1,0-0.1,0-0.2c0,0-0.1,0.1-0.1,0.1c-0.1,0-0.2-0.1-0.2-0.2c0,0,0-0.1,0-0.1   c-0.1,0-0.1,0-0.2,0c-0.3,0-0.5,0.2-0.5,0.5C27.5,28.9,27.7,29.1,28,29.1z M27.9,28.6c0.1,0,0.1,0.1,0.1,0.1c0,0.1-0.1,0.1-0.1,0.1   s-0.1-0.1-0.1-0.1C27.7,28.6,27.8,28.6,27.9,28.6z"></path><path d="M42.1,25.3c0.3,0,0.5-0.2,0.5-0.5c0-0.1,0-0.1,0-0.2c0,0-0.1,0.1-0.1,0.1c-0.1,0-0.2-0.1-0.2-0.2c0,0,0-0.1,0-0.1   c-0.1,0-0.1,0-0.2,0c-0.3,0-0.5,0.2-0.5,0.5C41.6,25.1,41.9,25.3,42.1,25.3z M42,24.8c0.1,0,0.1,0.1,0.1,0.1c0,0.1-0.1,0.1-0.1,0.1   c-0.1,0-0.1-0.1-0.1-0.1C41.9,24.8,41.9,24.8,42,24.8z"></path><path d="M38.3,28.4c-0.1,0-0.2-0.1-0.2-0.2c0,0,0-0.1,0-0.1c-0.1,0-0.1,0-0.2,0c-0.3,0-0.5,0.2-0.5,0.5c0,0.3,0.2,0.5,0.5,0.5   c0.3,0,0.5-0.2,0.5-0.5c0-0.1,0-0.1,0-0.2C38.4,28.4,38.4,28.4,38.3,28.4z M37.8,28.8c-0.1,0-0.1-0.1-0.1-0.1   c0-0.1,0.1-0.1,0.1-0.1c0.1,0,0.1,0.1,0.1,0.1C38,28.8,37.9,28.8,37.8,28.8z"></path><path d="M32.9,26.2c0.3,0,0.5-0.2,0.5-0.5c0-0.1,0-0.1,0-0.2c0,0-0.1,0.1-0.1,0.1c-0.1,0-0.2-0.1-0.2-0.2c0,0,0-0.1,0-0.1   c-0.1,0-0.1,0-0.2,0c-0.3,0-0.5,0.2-0.5,0.5C32.3,26,32.6,26.2,32.9,26.2z M32.7,25.7c0.1,0,0.1,0.1,0.1,0.1c0,0.1-0.1,0.1-0.1,0.1   c-0.1,0-0.1-0.1-0.1-0.1C32.6,25.7,32.7,25.7,32.7,25.7z"></path><path d="M53,7.5c-2.7,0-5.2,0.5-6.7,1.8c0.2-0.7,0.5-1.4,1-2c-1.3,0.3-2.6,1.1-3.3,2.3C44,8.8,44.1,8,44.2,7.3   c-1.6,1.7-2.4,4-2.5,5.8c-0.6-1.4-0.8-3.1-0.5-4.6c-1.2,1.1-2.1,2.6-2.5,4.2c-0.5-2.1,0.1-4.4,1.5-6c-2.3,1.3-3.8,3.8-3.9,6.5   c-1.1-1.5-1.5-3.4-1.2-5.2c-1,1.1-1.3,2.7-1.5,4.2c-0.4-2.3-2.1-4.4-4.4-5.1c1.1,1,1.7,2.6,1.6,4.1c-1.3-1.4-2.4-2.9-3.2-4.5   c-0.2,1.8-0.2,3.6,0,5.4c-1-1.8-2-3.7-3-5.5c0,1.5-0.3,3-0.9,4.3c-0.4-1.2-1.2-2.6-2.1-3.5C21.9,8,21.9,8.8,22,9.5   c-0.7-1.2-1.9-2-3.3-2.3c0.5,0.6,0.8,1.3,1,2c-2.4-2-5.6-1.9-8.7-1.6c-6.8,0.6-7.8,2-10,3.7c0,0,0,0,0,0c2.6,0.5,2.7,7,8.8,7   c5.5,0,10-5.2,10.7,0.6c-0.2,1-1.1,3.6-1.9,6.9C15,29.4,12,33.4,9.6,37.8C8.5,39.7,7,39,6,41c-0.6,1.1,0.4,1.5,0.8,1.1   c0.3-0.2,0.2-0.7,0-0.9c0.6-0.6,1.5-1,2.4-1c-0.3,0.8-0.6,1.5-1.1,2.1c-1.1,1.2,0.3,1.5,0.5,1.3c0.6-0.3-0.2-2,1.7-3.2   c0.5,0.8,0.7,1.8,0.4,2.6c-0.2,0.5-0.4,0.2-0.7,0.2c-0.6-0.1-0.7,0.9,0,1c0.4,0.1,0.9-0.2,1.1-0.9c0.5-1.2-0.1-3.1-0.1-3.1   s1.2,0.7,1.2,1.8c0,3,2.6,1.1,1.1-1c-0.6-0.9-0.7-2.1-0.3-3.2c1.3-2.9,2.9-5.7,4.7-8.2c-0.9,6.1-0.2,12.2,5,15.4   c-0.6,2.4-1.2,4.8-1.2,5.3c-0.1,2.3,1,4.4,1.2,6.7c-1-0.7-2.4-0.8-3.5-0.4c-0.7,0.3-1.4,0.8-1.9,1.4c-0.4,0.5,0,1.1,0.6,1.1   c8.2-0.2,6.4,1,6.3-8.2c0-1.4,0.9-3,1.9-4.5c4,1.2,9.5,1.1,13.3,0c1.1,1.5,2,3.2,1.9,4.5c-0.1,9.1-1.8,8,6.3,8.2   c0.6,0,0.9-0.7,0.6-1.1c-0.5-0.6-1.1-1.1-1.9-1.4c-1.2-0.4-2.5-0.3-3.5,0.4c0.2-2.3,1.3-4.5,1.2-6.7c0-0.5-0.6-2.9-1.2-5.3   c5.2-3.1,6.1-9.1,5.3-15.1c1.7,2.4,3.2,5.1,4.5,7.8c0.5,1,0.4,2.2-0.3,3.2c-1.5,2.2,1.1,4.1,1.1,1c0-1,1.2-1.8,1.2-1.8   s-0.5,2,0,3.1c0.3,0.7,0.8,1,1.1,0.9c0.8-0.1,0.6-1.1,0-1c-0.3,0-0.5,0.3-0.7-0.2c-0.3-0.9-0.2-1.9,0.3-2.6c2,1.3,1.1,2.9,1.7,3.2   c0.3,0.1,1.7-0.1,0.5-1.3c-0.4-0.7-0.8-1.4-1.1-2.1c0.9,0,1.8,0.4,2.4,1c-0.3,0.2-0.3,0.7-0.1,0.9c0.4,0.4,1.4,0,0.8-1.1   c-1-2-2.5-1.3-3.6-3.2c-2.4-4.3-5.3-8.2-8.8-11.6c-1-4.2-2-6.3-2.2-7.2c0.4-3,2-3.2,4.7-2.1c12.1,5.2,11.8-5,14.9-5.5c0,0,0,0,0,0   s0,0,0,0C62.8,9.1,57.6,7.5,53,7.5z M42.2,22.8c1,0,1.8,0.8,1.8,1.9c0,1-0.8,1.9-1.8,1.9c-1,0-1.9-0.8-1.9-1.9   C40.3,23.7,41.1,22.8,42.2,22.8z M36.9,16.9c1.5,0,2.8,1.2,2.8,2.8c0,1.5-1.2,2.8-2.8,2.8c-1.5,0-2.8-1.2-2.8-2.8   C34.2,18.2,35.4,16.9,36.9,16.9z M39.8,28.5c0,1-0.8,1.9-1.8,1.9c-1,0-1.9-0.8-1.9-1.9c0-1,0.8-1.8,1.9-1.8   C39,26.6,39.8,27.4,39.8,28.5z M34.7,25.6c0,1-0.8,1.9-1.9,1.9c-1,0-1.9-0.8-1.9-1.9s0.8-1.9,1.9-1.9   C33.9,23.7,34.7,24.6,34.7,25.6z M29.1,16.9c1.5,0,2.8,1.2,2.8,2.8c0,1.5-1.2,2.8-2.8,2.8c-1.5,0-2.8-1.2-2.8-2.8   C26.4,18.2,27.6,16.9,29.1,16.9z M28,26.6c1,0,1.9,0.8,1.9,1.8c0,1-0.8,1.9-1.9,1.9c-1,0-1.9-0.8-1.9-1.9   C26.2,27.4,27,26.6,28,26.6z M23.9,22.8c1,0,1.8,0.8,1.8,1.9c0,1-0.8,1.9-1.8,1.9c-1,0-1.9-0.8-1.9-1.9   C22,23.7,22.8,22.8,23.9,22.8z M45.4,36.7c-1,3.4-4.9,7.4-12.4,7.4c-7.4,0-11.3-3.9-12.3-7.3c-1-3.1,0.7-5.2,3-3.3   c4.3,3.4,14.5,3.4,18.8-0.1C44.7,31.5,46.4,33.5,45.4,36.7z"></path><path d="M43,34.1c-0.7,0.5-1.5,1-2.4,1.4c0.2,0.4,0.4,1.1,0.3,1.3c-0.6,1.1-2.6,1.5-3,0.6c0,0,0,0,0,0c-0.1-0.3-0.2-0.8-0.2-1.1   c-0.4,0.1-0.7,0.2-1.1,0.2c0.1,0.3,0.2,1,0.1,1.3c0,0,0,0,0,0c-0.3,0.7-2,1.1-2.8,0.3c-0.2-0.2-0.1-1-0.1-1.3c-0.3,0-0.7,0-1,0   c0,0.5,0.1,1.1-0.1,1.3c-0.8,0.8-2.7,0.4-2.9-0.3l0,0c0-0.1-0.1-0.3,0.1-1.2c-0.4-0.1-0.9-0.1-1.3-0.2c0,0.5-0.1,1.1-0.3,1.3   c-0.9,0.6-2.5-0.1-2.7-0.8v0c-0.1-0.3,0-0.9,0.2-1.3c-1.1-0.4-2-0.9-2.8-1.5c-1.7-1.3-2,0.5-1.5,2.3c0.5,1.7,1.9,3.6,4.2,4.9   c0-1.4,0.3-1.2,0.3-1.3v0c0.9-0.4,2.4,0.5,2.7,1.2l0,0c0,0.1,0.1,0.2-0.2,1.3c0.4,0.1,0.9,0.2,1.3,0.3c0-0.5,0.1-1.1,0.2-1.3   c0.6-0.6,5.6-0.7,6.4-0.2c0,0,0,0,0,0c0.3,0.3,0.3,0.9,0.2,1.4c0.4-0.1,0.8-0.2,1.2-0.3c-0.4-1.2-0.1-1.3-0.2-1.3   c0.8-1.3,2.4-1.6,2.7-1.1c0,0,0,0,0,0c0.2,0.3,0.2,0.8,0.3,1.1c2-1.3,3.2-3.1,3.7-4.7C45,34.7,44.8,32.7,43,34.1z"></path></g></svg>