<svg id="Layer_1" data-name="Layer 1" xmlns="http://www.w3.org/2000/svg" viewBox="0 0 128 128"><defs><style>.cls-1{fill:#1a1a1a;}.cls-2{fill:red;}</style></defs><title>rolling dice_black and red</title><path class="cls-1" d="M80.78,51.56,51.22,37.45A17.29,17.29,0,0,0,44,36a17.29,17.29,0,0,0-7.22,1.43L7.22,51.56A13.9,13.9,0,0,0,0,63V97a15.21,15.21,0,0,0,7,12L37,126.05a14.54,14.54,0,0,0,7,1.63,14.54,14.54,0,0,0,7-1.63L81,109a15.21,15.21,0,0,0,7-12V63A13.9,13.9,0,0,0,80.78,51.56ZM44,52.67c3.87,0,7,1.79,7,4s-3.13,4-7,4-7-1.79-7-4S40.13,52.67,44,52.67Zm-28.21,51a3,3,0,0,1-1.35.31c-2,0-4.34-1.93-5.59-4.93-1.54-3.7-.93-7.61,1.36-8.76A3,3,0,0,1,11.56,90c2,0,4.34,1.93,5.59,4.93C18.69,98.63,18.08,102.54,15.79,103.69Zm0-22a3,3,0,0,1-1.35.31c-2,0-4.34-1.93-5.59-4.93-1.54-3.7-.93-7.61,1.36-8.76A3,3,0,0,1,11.56,68c2,0,4.34,1.93,5.59,4.93C18.69,76.63,18.08,80.54,15.79,81.69Zm20,33a3,3,0,0,1-1.35.31c-2,0-4.34-1.93-5.59-4.93-1.54-3.7-.93-7.61,1.36-8.76a3,3,0,0,1,1.35-.31c2.05,0,4.34,1.93,5.59,4.93C38.69,109.63,38.08,113.54,35.79,114.69Zm0-22a3,3,0,0,1-1.35.31c-2,0-4.34-1.93-5.59-4.93-1.54-3.7-.93-7.61,1.36-8.76A3,3,0,0,1,31.56,79c2.05,0,4.34,1.93,5.59,4.93C38.69,87.63,38.08,91.54,35.79,92.69Zm23.36,17.38c-1.25,3-3.54,4.93-5.59,4.93a3,3,0,0,1-1.35-.31c-2.29-1.15-2.9-5.06-1.36-8.76,1.25-3,3.54-4.93,5.59-4.93a3,3,0,0,1,1.35.31C60.08,102.46,60.69,106.37,59.15,110.07Zm0-22c-1.25,3-3.54,4.93-5.59,4.93a3,3,0,0,1-1.35-.31c-2.29-1.15-2.9-5.06-1.36-8.76,1.25-3,3.54-4.93,5.59-4.93a3,3,0,0,1,1.35.31C60.08,80.46,60.69,84.37,59.15,88.07Zm20,11c-1.25,3-3.54,4.93-5.59,4.93a3,3,0,0,1-1.35-.31c-2.29-1.15-2.9-5.06-1.36-8.76,1.25-3,3.54-4.93,5.59-4.93a3,3,0,0,1,1.35.31C80.08,91.46,80.69,95.37,79.15,99.07Zm0-22c-1.25,3-3.54,4.93-5.59,4.93a3,3,0,0,1-1.35-.31c-2.29-1.15-2.9-5.06-1.36-8.76,1.25-3,3.54-4.93,5.59-4.93a3,3,0,0,1,1.35.31C80.08,69.46,80.69,73.37,79.15,77.07ZM82.09,60.3,46,80.18V122a2,2,0,0,1-4,0V80.33L5.62,60a2,2,0,1,1,1.94-3.49l36.3,20.28,36.3-20a2,2,0,1,1,1.93,3.51Z"/><path class="cls-2" d="M116.34,21.87a19,19,0,0,0-10.21-10.21L75.05.67a11.09,11.09,0,0,0-3.73-.6,13.9,13.9,0,0,0-9.47,3.59L37.66,27.85a14,14,0,0,0-3.4,6.37l.8-.38A21.18,21.18,0,0,1,44,32c.3,0,.59,0,.89,0a5.47,5.47,0,0,1,3.79-2,3,3,0,0,1,1,.16,3.84,3.84,0,0,1,2.24,3.23c.36.14.71.29,1,.45l12.62,6C66.92,37.52,68.91,36,70.68,36a3,3,0,0,1,1,.16c2.16.77,2.92,4,1.86,7.5l5.21,2.49,1-1L68.9,6.31a2,2,0,1,1,3.85-1.08l11,39.18,38.92,11.1a2,2,0,0,1-.55,3.93c-.16,0-31.86-9-38.52-10.91a17.5,17.5,0,0,1,5.7,5.72,3.54,3.54,0,0,1,2.56,2.09,3.61,3.61,0,0,1-.36,2.9A14.53,14.53,0,0,1,92,63V94.08a14.77,14.77,0,0,0,8.15-3.74l24.19-24.19a13.88,13.88,0,0,0,3-13.2Zm-49.1,1.42C66,26.09,63.48,28,61.32,28a3.57,3.57,0,0,1-1-.14c-2.34-.71-3-3.91-1.57-7.15C60,17.91,62.52,16,64.68,16a3.57,3.57,0,0,1,1,.14C68,16.85,68.7,20.05,67.24,23.29Zm35,13.92a3,3,0,0,1-2.16.79,9.35,9.35,0,0,1-6-3c-2.87-2.88-3.87-6.55-2.23-8.19A3,3,0,0,1,94,26a9.35,9.35,0,0,1,6,3C102.85,31.9,103.85,35.56,102.21,37.21Zm6.29,32a10.91,10.91,0,0,1-3.85.76c-2.19,0-4-.83-4.48-2.34-.84-2.34,1.55-5.43,5.33-6.9a10.91,10.91,0,0,1,3.85-.76c2.2,0,4,.83,4.49,2.34C114.67,64.68,112.28,67.77,108.5,69.24Z"/></svg>