<?xml version="1.0" encoding="utf-8"?>
<!-- Generator: Adobe Illustrator 23.0.3, SVG Export Plug-In . SVG Version: 6.00 Build 0)  -->
<svg version="1.1" id="Layer_1" xmlns="http://www.w3.org/2000/svg" xmlns:xlink="http://www.w3.org/1999/xlink" x="0px" y="0px"
	 viewBox="0 0 128 128" style="enable-background:new 0 0 128 128;" xml:space="preserve">
<style type="text/css">
	.st0{fill:#1A1A1A;}
	.st1{fill:#FF0000;}
</style>
<path class="st0" d="M80.8,51.6L51.2,37.4c-2-0.9-4.6-1.4-7.2-1.4s-5.2,0.5-7.2,1.4L7.2,51.6C3.2,53.5,0,58.6,0,63v34
	c0,4.4,3.1,9.8,7,12L37,126c1.9,1.1,4.4,1.6,7,1.6s5-0.5,7-1.6L81,109c3.8-2.2,7-7.6,7-12V63C88,58.6,84.8,53.5,80.8,51.6z M44,52.7
	c3.9,0,7,1.8,7,4c0,2.2-3.1,4-7,4s-7-1.8-7-4C37,54.5,40.1,52.7,44,52.7z M15.8,103.7c-0.4,0.2-0.9,0.3-1.4,0.3
	c-2,0-4.3-1.9-5.6-4.9c-1.5-3.7-0.9-7.6,1.4-8.8c0.4-0.2,0.9-0.3,1.4-0.3c2,0,4.3,1.9,5.6,4.9C18.7,98.6,18.1,102.5,15.8,103.7z
	 M15.8,81.7c-0.4,0.2-0.9,0.3-1.4,0.3c-2,0-4.3-1.9-5.6-4.9c-1.5-3.7-0.9-7.6,1.4-8.8c0.4-0.2,0.9-0.3,1.4-0.3c2,0,4.3,1.9,5.6,4.9
	C18.7,76.6,18.1,80.5,15.8,81.7z M35.8,114.7c-0.4,0.2-0.9,0.3-1.4,0.3c-2,0-4.3-1.9-5.6-4.9c-1.5-3.7-0.9-7.6,1.4-8.8
	c0.4-0.2,0.9-0.3,1.4-0.3c2,0,4.3,1.9,5.6,4.9C38.7,109.6,38.1,113.5,35.8,114.7z M35.8,92.7c-0.4,0.2-0.9,0.3-1.4,0.3
	c-2,0-4.3-1.9-5.6-4.9c-1.5-3.7-0.9-7.6,1.4-8.8c0.4-0.2,0.9-0.3,1.4-0.3c2,0,4.3,1.9,5.6,4.9C38.7,87.6,38.1,91.5,35.8,92.7z
	 M59.1,110.1c-1.3,3-3.5,4.9-5.6,4.9c-0.5,0-0.9-0.1-1.4-0.3c-2.3-1.1-2.9-5.1-1.4-8.8c1.3-3,3.5-4.9,5.6-4.9c0.5,0,0.9,0.1,1.4,0.3
	C60.1,102.5,60.7,106.4,59.1,110.1z M59.1,88.1c-1.3,3-3.5,4.9-5.6,4.9c-0.5,0-0.9-0.1-1.4-0.3c-2.3-1.1-2.9-5.1-1.4-8.8
	c1.3-3,3.5-4.9,5.6-4.9c0.5,0,0.9,0.1,1.4,0.3C60.1,80.5,60.7,84.4,59.1,88.1z M79.1,99.1c-1.3,3-3.5,4.9-5.6,4.9
	c-0.5,0-0.9-0.1-1.4-0.3c-2.3-1.1-2.9-5.1-1.4-8.8c1.3-3,3.5-4.9,5.6-4.9c0.5,0,0.9,0.1,1.4,0.3C80.1,91.5,80.7,95.4,79.1,99.1z
	 M79.1,77.1c-1.3,3-3.5,4.9-5.6,4.9c-0.5,0-0.9-0.1-1.4-0.3c-2.3-1.1-2.9-5.1-1.4-8.8c1.3-3,3.5-4.9,5.6-4.9c0.5,0,0.9,0.1,1.4,0.3
	C80.1,69.5,80.7,73.4,79.1,77.1z M82.1,60.3L46,80.2V122c0,1.1-0.9,2-2,2s-2-0.9-2-2V80.3L5.6,60c-1-0.5-1.3-1.8-0.8-2.7
	c0.5-1,1.8-1.3,2.7-0.8l36.3,20.3l36.3-20c1-0.5,2.2-0.2,2.7,0.8C83.4,58.5,83.1,59.8,82.1,60.3z"/>
<path class="st1" d="M116.3,21.9c-1.5-4.1-6.1-8.7-10.2-10.2L75,0.7c-1.1-0.4-2.4-0.6-3.7-0.6c-3.5,0-7.2,1.3-9.5,3.6L37.7,27.8
	c-1.6,1.6-2.8,3.9-3.4,6.4l0.8-0.4c2.4-1.2,5.6-1.8,8.9-1.8c0.3,0,0.6,0,0.9,0c1.2-1.3,2.5-2,3.8-2c0.3,0,0.7,0.1,1,0.2
	c1.2,0.4,2,1.6,2.2,3.2c0.4,0.1,0.7,0.3,1,0.4l12.6,6c1.4-2.3,3.3-3.9,5.1-3.9c0.3,0,0.7,0.1,1,0.2c2.2,0.8,2.9,4,1.9,7.5l5.2,2.5
	l1-1L68.9,6.3c-0.3-1.1,0.3-2.2,1.4-2.5c1.1-0.3,2.2,0.3,2.5,1.4l11,39.2l38.9,11.1c1.1,0.3,1.7,1.4,1.4,2.5
	c-0.3,0.9-1.1,1.5-1.9,1.5c-0.2,0-31.9-9-38.5-10.9c2.2,1.3,4.2,3.4,5.7,5.7c1.3,0.3,2.2,1.1,2.6,2.1c0.3,0.9,0.2,1.9-0.4,2.9
	c0.3,1.3,0.5,2.5,0.5,3.8v31.1c3.1-0.4,6.2-1.8,8.2-3.7l24.2-24.2c3.1-3.1,4.5-9.1,3-13.2L116.3,21.9z M67.2,23.3
	C66,26.1,63.5,28,61.3,28c-0.3,0-0.7,0-1-0.1c-2.3-0.7-3-3.9-1.6-7.1c1.3-2.8,3.8-4.7,5.9-4.7c0.3,0,0.7,0,1,0.1
	C68,16.9,68.7,20.1,67.2,23.3z M102.2,37.2c-0.5,0.5-1.3,0.8-2.2,0.8c-1.8,0-4.1-1.1-6-3c-2.9-2.9-3.9-6.5-2.2-8.2
	c0.5-0.5,1.3-0.8,2.2-0.8c1.8,0,4.1,1.1,6,3C102.9,31.9,103.9,35.6,102.2,37.2z M108.5,69.2c-1.3,0.5-2.7,0.8-3.9,0.8
	c-2.2,0-3.9-0.8-4.5-2.3c-0.8-2.3,1.6-5.4,5.3-6.9c1.3-0.5,2.7-0.8,3.9-0.8c2.2,0,3.9,0.8,4.5,2.3C114.7,64.7,112.3,67.8,108.5,69.2
	z"/>
</svg>
